<svg width="400" height="510" viewBox="0 0 400 510" fill="none" xmlns="http://www.w3.org/2000/svg">
<g filter="url(#filter0_d)">
<path d="M106.834 486.384C107.074 487.008 107.194 487.584 107.194 488.112C107.194 489.36 106.786 490.392 105.97 491.208C105.154 491.976 104.218 492.36 103.162 492.36C102.298 492.36 101.506 492.096 100.786 491.568C100.114 491.04 99.5863 490.32 99.2023 489.408L95.4583 480.696H74.0023L70.2583 489.48C69.9223 490.392 69.3943 491.112 68.6743 491.64C68.0023 492.12 67.2583 492.36 66.4423 492.36C65.1943 492.36 64.2343 492.024 63.5623 491.352C62.9383 490.68 62.6263 489.768 62.6263 488.616C62.6263 488.184 62.6983 487.728 62.8423 487.248L80.7703 444.192C81.1543 443.232 81.7303 442.488 82.4983 441.96C83.2663 441.432 84.1303 441.216 85.0903 441.312C85.9543 441.312 86.7463 441.576 87.4663 442.104C88.2343 442.584 88.7863 443.28 89.1223 444.192L106.834 486.384ZM91.9303 472.416L84.6583 455.568L77.5303 472.416H91.9303ZM132.587 452.76C134.027 452.76 135.227 453.168 136.187 453.984C137.195 454.8 137.699 455.76 137.699 456.864C137.699 458.352 137.315 459.48 136.547 460.248C135.779 460.968 134.867 461.328 133.811 461.328C133.091 461.328 132.275 461.16 131.363 460.824C131.219 460.776 130.883 460.68 130.355 460.536C129.875 460.392 129.347 460.32 128.771 460.32C127.523 460.32 126.323 460.704 125.171 461.472C124.019 462.24 123.059 463.416 122.291 465C121.571 466.536 121.211 468.384 121.211 470.544V487.608C121.211 488.856 120.803 489.912 119.987 490.776C119.171 491.592 118.139 492 116.891 492C115.643 492 114.611 491.592 113.795 490.776C112.979 489.912 112.571 488.856 112.571 487.608V457.872C112.571 456.624 112.979 455.592 113.795 454.776C114.611 453.912 115.643 453.48 116.891 453.48C118.139 453.48 119.171 453.912 119.987 454.776C120.803 455.592 121.211 456.624 121.211 457.872V458.808C122.315 456.84 123.899 455.352 125.963 454.344C128.027 453.288 130.235 452.76 132.587 452.76ZM188.213 452.76C192.965 452.76 196.253 454.224 198.077 457.152C199.901 460.032 200.813 464.04 200.813 469.176V487.608C200.813 488.856 200.405 489.912 199.589 490.776C198.773 491.592 197.741 492 196.493 492C195.245 492 194.213 491.592 193.397 490.776C192.581 489.912 192.173 488.856 192.173 487.608V469.176C192.173 466.536 191.645 464.472 190.589 462.984C189.581 461.448 187.781 460.68 185.189 460.68C182.501 460.68 180.389 461.496 178.853 463.128C177.365 464.712 176.621 466.728 176.621 469.176V487.608C176.621 488.856 176.213 489.912 175.397 490.776C174.581 491.592 173.549 492 172.301 492C171.053 492 170.021 491.592 169.205 490.776C168.389 489.912 167.981 488.856 167.981 487.608V469.176C167.981 466.536 167.453 464.472 166.397 462.984C165.389 461.448 163.589 460.68 160.997 460.68C158.309 460.68 156.197 461.496 154.661 463.128C153.173 464.712 152.429 466.728 152.429 469.176V487.608C152.429 488.856 152.021 489.912 151.205 490.776C150.389 491.592 149.357 492 148.109 492C146.861 492 145.829 491.592 145.013 490.776C144.197 489.912 143.789 488.856 143.789 487.608V457.872C143.789 456.624 144.197 455.592 145.013 454.776C145.829 453.912 146.861 453.48 148.109 453.48C149.357 453.48 150.389 453.912 151.205 454.776C152.021 455.592 152.429 456.624 152.429 457.872V459.024C153.725 457.296 155.357 455.832 157.325 454.632C159.341 453.384 161.573 452.76 164.021 452.76C170.069 452.76 173.933 455.4 175.613 460.68C176.717 458.664 178.373 456.84 180.581 455.208C182.837 453.576 185.381 452.76 188.213 452.76ZM247.172 472.776C247.172 476.616 246.308 480.072 244.58 483.144C242.852 486.168 240.476 488.52 237.452 490.2C234.476 491.88 231.188 492.72 227.588 492.72C223.94 492.72 220.628 491.88 217.652 490.2C214.676 488.52 212.324 486.168 210.596 483.144C208.868 480.072 208.004 476.616 208.004 472.776C208.004 468.936 208.868 465.504 210.596 462.48C212.324 459.408 214.676 457.032 217.652 455.352C220.628 453.624 223.94 452.76 227.588 452.76C231.188 452.76 234.476 453.624 237.452 455.352C240.476 457.032 242.852 459.408 244.58 462.48C246.308 465.504 247.172 468.936 247.172 472.776ZM238.532 472.776C238.532 470.424 238.028 468.336 237.02 466.512C236.06 464.64 234.74 463.2 233.06 462.192C231.428 461.184 229.604 460.68 227.588 460.68C225.572 460.68 223.724 461.184 222.044 462.192C220.412 463.2 219.092 464.64 218.084 466.512C217.124 468.336 216.644 470.424 216.644 472.776C216.644 475.128 217.124 477.216 218.084 479.04C219.092 480.864 220.412 482.28 222.044 483.288C223.724 484.296 225.572 484.8 227.588 484.8C229.604 484.8 231.428 484.296 233.06 483.288C234.74 482.28 236.06 480.864 237.02 479.04C238.028 477.216 238.532 475.128 238.532 472.776ZM262.527 487.608C262.527 488.856 262.119 489.912 261.303 490.776C260.487 491.592 259.455 492 258.207 492C256.959 492 255.927 491.592 255.111 490.776C254.295 489.912 253.887 488.856 253.887 487.608V457.872C253.887 456.624 254.295 455.592 255.111 454.776C255.927 453.912 256.959 453.48 258.207 453.48C259.455 453.48 260.487 453.912 261.303 454.776C262.119 455.592 262.527 456.624 262.527 457.872V487.608ZM258.135 448.8C256.503 448.8 255.351 448.536 254.679 448.008C254.007 447.48 253.671 446.544 253.671 445.2V443.832C253.671 442.488 254.031 441.552 254.751 441.024C255.471 440.496 256.623 440.232 258.207 440.232C259.887 440.232 261.063 440.496 261.735 441.024C262.407 441.552 262.743 442.488 262.743 443.832V445.2C262.743 446.592 262.383 447.552 261.663 448.08C260.991 448.56 259.815 448.8 258.135 448.8ZM291.423 452.76C292.863 452.76 294.063 453.168 295.023 453.984C296.031 454.8 296.535 455.76 296.535 456.864C296.535 458.352 296.151 459.48 295.383 460.248C294.615 460.968 293.703 461.328 292.647 461.328C291.927 461.328 291.111 461.16 290.199 460.824C290.055 460.776 289.719 460.68 289.191 460.536C288.711 460.392 288.183 460.32 287.607 460.32C286.359 460.32 285.159 460.704 284.007 461.472C282.855 462.24 281.895 463.416 281.127 465C280.407 466.536 280.047 468.384 280.047 470.544V487.608C280.047 488.856 279.639 489.912 278.823 490.776C278.007 491.592 276.975 492 275.727 492C274.479 492 273.447 491.592 272.631 490.776C271.815 489.912 271.407 488.856 271.407 487.608V457.872C271.407 456.624 271.815 455.592 272.631 454.776C273.447 453.912 274.479 453.48 275.727 453.48C276.975 453.48 278.007 453.912 278.823 454.776C279.639 455.592 280.047 456.624 280.047 457.872V458.808C281.151 456.84 282.735 455.352 284.799 454.344C286.863 453.288 289.071 452.76 291.423 452.76ZM335.568 471.84C335.52 472.992 335.064 473.928 334.2 474.648C333.336 475.368 332.328 475.728 331.176 475.728H307.416C307.992 478.56 309.312 480.792 311.376 482.424C313.44 484.008 315.768 484.8 318.36 484.8C320.328 484.8 321.864 484.632 322.968 484.296C324.072 483.912 324.936 483.528 325.56 483.144C326.232 482.712 326.688 482.424 326.928 482.28C327.792 481.848 328.608 481.632 329.376 481.632C330.384 481.632 331.248 481.992 331.968 482.712C332.688 483.432 333.048 484.272 333.048 485.232C333.048 486.528 332.376 487.704 331.032 488.76C329.688 489.864 327.888 490.8 325.632 491.568C323.376 492.336 321.096 492.72 318.792 492.72C314.76 492.72 311.232 491.88 308.208 490.2C305.232 488.52 302.928 486.216 301.296 483.288C299.664 480.312 298.848 476.976 298.848 473.28C298.848 469.152 299.712 465.528 301.44 462.408C303.168 459.288 305.448 456.912 308.28 455.28C311.112 453.6 314.136 452.76 317.352 452.76C320.52 452.76 323.496 453.624 326.28 455.352C329.112 457.08 331.368 459.408 333.048 462.336C334.728 465.264 335.568 468.432 335.568 471.84ZM317.352 460.68C311.784 460.68 308.496 463.296 307.488 468.528H326.352V468.024C326.16 466.008 325.176 464.28 323.4 462.84C321.624 461.4 319.608 460.68 317.352 460.68Z" fill="white"/>
</g>
<g filter="url(#filter1_d)">
<path d="M201.143 187.57L288.103 375.846H114.182L201.143 187.57Z" fill="white"/>
<path d="M190 215.592L182 229C182 229 185.947 220.737 185.947 215.592C185.947 210.447 182 205 182 205L190 215.592Z" fill="white" stroke="white" stroke-width="0.1"/>
<path d="M212 215.592L220 229C220 229 216.053 220.737 216.053 215.592C216.053 210.447 219.5 205 219.5 205L212 215.592Z" fill="white" stroke="white" stroke-width="0.1"/>
<path d="M214.925 213.72C208.951 224.983 192.847 225.076 186.743 213.883L141.903 131.66C136.089 120.999 143.806 108 155.95 108H244.402C256.465 108 264.189 120.841 258.537 131.497L214.925 213.72Z" fill="white"/>
<circle cx="168.541" cy="111.934" r="32.6018" fill="white"/>
<circle cx="231.602" cy="112.602" r="32.6018" fill="white"/>
<circle cx="200.602" cy="37.6018" r="32.6018" fill="#FFFAFA"/>
</g>
<defs>
<filter id="filter0_d" x="52.6262" y="435.232" width="292.942" height="72.488" filterUnits="userSpaceOnUse" color-interpolation-filters="sRGB">
<feFlood flood-opacity="0" result="BackgroundImageFix"/>
<feColorMatrix in="SourceAlpha" type="matrix" values="0 0 0 0 0 0 0 0 0 0 0 0 0 0 0 0 0 0 127 0"/>
<feOffset dy="5"/>
<feGaussianBlur stdDeviation="5"/>
<feColorMatrix type="matrix" values="0 0 0 0 0 0 0 0 0 0 0 0 0 0 0 0 0 0 0.25 0"/>
<feBlend mode="normal" in2="BackgroundImageFix" result="effect1_dropShadow"/>
<feBlend mode="normal" in="SourceGraphic" in2="effect1_dropShadow" result="shape"/>
</filter>
<filter id="filter1_d" x="104.182" y="0" width="193.922" height="390.846" filterUnits="userSpaceOnUse" color-interpolation-filters="sRGB">
<feFlood flood-opacity="0" result="BackgroundImageFix"/>
<feColorMatrix in="SourceAlpha" type="matrix" values="0 0 0 0 0 0 0 0 0 0 0 0 0 0 0 0 0 0 127 0"/>
<feOffset dy="5"/>
<feGaussianBlur stdDeviation="5"/>
<feColorMatrix type="matrix" values="0 0 0 0 0 0 0 0 0 0 0 0 0 0 0 0 0 0 0.25 0"/>
<feBlend mode="normal" in2="BackgroundImageFix" result="effect1_dropShadow"/>
<feBlend mode="normal" in="SourceGraphic" in2="effect1_dropShadow" result="shape"/>
</filter>
</defs>
</svg>
